<svg width="94" height="20" viewBox="0 0 94 20" fill="none" xmlns="http://www.w3.org/2000/svg">
<path fill-rule="evenodd" clip-rule="evenodd" d="M0.644185 7.70717C0.644185 3.71446 4.02826 0.463623 8.05443 0.463623C10.2803 0.463623 11.864 1.33041 13.0591 2.45922L11.652 3.85461C10.7979 3.05942 9.6397 2.44246 8.05289 2.44246C5.11276 2.44246 2.81472 4.78995 2.81472 7.70564C2.81472 10.6213 5.11276 12.9719 8.05135 12.9719C9.95768 12.9719 11.0422 12.2132 11.738 11.5216C12.3079 10.9565 12.6812 10.1445 12.8256 9.03096H8.05443V7.05669H14.7703C14.841 7.41011 14.8779 7.8336 14.8779 8.29213C14.8779 9.77436 14.4677 11.613 13.1482 12.9216C11.864 14.2469 10.2265 14.9538 8.05289 14.9538C4.02519 14.9538 0.641113 11.706 0.641113 7.71021L0.644185 7.70717ZM20.3065 5.62322C17.7059 5.62322 15.583 7.5853 15.583 10.2862C15.583 12.9734 17.7043 14.9492 20.3065 14.9492C22.9087 14.9492 25.027 12.9703 25.027 10.2847C25.027 7.58377 22.9072 5.6217 20.3065 5.62322ZM20.3065 13.1151C18.8825 13.1151 17.6521 11.9497 17.6521 10.2877C17.6521 8.60899 18.881 7.46038 20.3065 7.46038C21.7305 7.46038 22.9594 8.60747 22.9594 10.2877C22.9594 11.9482 21.732 13.1151 20.3065 13.1151ZM30.6062 5.62322C28.0056 5.62322 25.8857 7.5853 25.8857 10.2862C25.8857 12.9734 28.0056 14.9492 30.6062 14.9492C33.2069 14.9492 35.3267 12.9703 35.3267 10.2847C35.3267 7.58377 33.2084 5.6217 30.6062 5.62322ZM30.6062 13.1151C29.1822 13.1151 27.9518 11.9497 27.9518 10.2877C27.9518 8.60899 29.1807 7.46038 30.6062 7.46038C32.0302 7.46038 33.2606 8.60747 33.2606 10.2877C33.2606 11.9482 32.0302 13.1151 30.6062 13.1151ZM43.2469 5.90656V6.66519H43.1763C42.7139 6.11526 41.823 5.6217 40.7016 5.6217C38.3498 5.6217 36.1915 7.67213 36.1915 10.306C36.1915 12.9186 38.3483 14.9522 40.7016 14.9522C41.823 14.9522 42.7139 14.4587 43.1763 13.8935H43.2469V14.5638C43.2469 16.3476 42.2853 17.3028 40.7354 17.3028C39.4696 17.3028 38.6862 16.4009 38.3652 15.6438L36.5648 16.3857C37.081 17.6211 38.4542 19.1415 40.7338 19.1415C43.1548 19.1415 45.204 17.7263 45.204 14.282V5.90504L43.2469 5.90656ZM40.8782 13.1151C39.4543 13.1151 38.2576 11.9299 38.2576 10.306C38.2576 8.66383 39.4527 7.46191 40.8782 7.46191C42.2853 7.46191 43.3898 8.66231 43.3898 10.306C43.3913 11.9299 42.2869 13.1151 40.8782 13.1151ZM46.631 0.958713H48.6986V14.6689H46.631V0.958713ZM54.3654 13.1151C53.3147 13.1151 52.565 12.6367 52.0873 11.7029L58.3762 9.12084L58.1596 8.59071C57.7694 7.55026 56.5743 5.62322 54.1334 5.62322C51.711 5.62322 49.6971 7.5137 49.6971 10.2877C49.6971 12.9003 51.6925 14.9507 54.3654 14.9507C56.5221 14.9507 57.7694 13.6452 58.2855 12.8835L56.6818 11.8248C56.1457 12.6032 55.4145 13.1166 54.3654 13.1151ZM54.2041 7.42535C55.0228 7.42535 55.7172 7.83208 55.9491 8.414L51.7432 10.1461C51.691 8.34393 53.1518 7.42535 54.2041 7.42535ZM67.4485 0.958713H62.5053V14.6689H64.5683V9.47578H67.4501C69.7373 9.47578 71.9862 7.8336 71.9862 5.21648C71.9862 2.60393 69.7389 0.960236 67.4531 0.960236L67.4485 0.958713ZM67.5023 7.56702H64.5683V2.86595H67.5023C69.0445 2.86595 69.9232 4.1349 69.9232 5.21648C69.9232 6.27978 69.0445 7.56702 67.5023 7.56702ZM75.1859 14.6689V0.958713H73.1229V14.6689H75.1859ZM84.4534 14.6445V9.38895C84.4534 6.95463 82.6192 5.59732 80.2521 5.59732C78.7605 5.59732 77.2136 6.25084 76.5731 7.6965L78.4041 8.45361C78.7958 7.6965 79.5239 7.4482 80.2905 7.4482C81.3565 7.4482 82.441 8.08343 82.4579 9.21376V9.35543C82.0847 9.14369 81.2859 8.82531 80.3058 8.82531C78.3319 8.82531 76.3227 9.90079 76.3227 11.9116C76.3227 13.7473 77.9417 14.9279 79.7559 14.9279C81.1446 14.9279 81.908 14.3109 82.3873 13.5888H82.4579V14.6476H84.4518L84.4534 14.6445ZM80.0063 13.112C79.3304 13.112 78.3872 12.7769 78.3872 11.9497C78.3872 10.891 79.5624 10.4827 80.5762 10.4827C81.484 10.4827 81.9095 10.6762 82.4625 10.9412C82.3043 12.1721 81.2551 13.0968 80.0063 13.112ZM91.7085 5.89742L89.3428 11.84H89.2722L86.8174 5.89742H84.5947L88.2752 14.2058L86.1754 18.8261H88.3274L94.0003 5.89742H91.7085Z" fill="#808285"/>
</svg>
