<svg width="67" height="66" viewBox="0 0 67 66" fill="none" xmlns="http://www.w3.org/2000/svg">
<path fill-rule="evenodd" clip-rule="evenodd" d="M33.36 6.16313C18.6102 6.16313 6.65312 18.1202 6.65312 32.87C6.65312 47.62 18.6102 59.5769 33.36 59.5769C48.11 59.5769 60.0669 47.62 60.0669 32.87C60.0669 18.1202 48.11 6.16313 33.36 6.16313ZM0.48999 32.87C0.48999 14.7164 15.2064 0 33.36 0C51.5137 0 66.23 14.7164 66.23 32.87C66.23 51.0237 51.5137 65.74 33.36 65.74C15.2064 65.74 0.48999 51.0237 0.48999 32.87ZM27.1969 31.8428C27.1969 30.1409 28.5766 28.7613 30.2784 28.7613H34.3872C36.0891 28.7613 37.4688 30.1409 37.4688 31.8428V43.1419H38.496C40.1978 43.1419 41.5775 44.5216 41.5775 46.2235C41.5775 47.9253 40.1978 49.305 38.496 49.305H30.2784C28.5766 49.305 27.1969 47.9253 27.1969 46.2235C27.1969 44.5216 28.5766 43.1419 30.2784 43.1419H31.3056V34.9244H30.2784C28.5766 34.9244 27.1969 33.5447 27.1969 31.8428ZM33.36 24.6525C35.6292 24.6525 37.4688 22.8129 37.4688 20.5438C37.4688 18.2746 35.6292 16.435 33.36 16.435C31.0908 16.435 29.2513 18.2746 29.2513 20.5438C29.2513 22.8129 31.0908 24.6525 33.36 24.6525Z" fill="#24292E"/>
</svg>
