<svg width="181" height="181" viewBox="0 0 181 181" fill="none" xmlns="http://www.w3.org/2000/svg">
<path d="M10.3429 0C7.59976 0 4.96902 1.08969 3.02935 3.02935C1.08969 4.96902 0 7.59976 0 10.3429V51.7143H51.7143V0H10.3429ZM38.7857 38.7857H12.9286V12.9286H38.7857V38.7857Z" fill="black"/>
<path d="M0 170.657C0 173.4 1.08969 176.031 3.02935 177.971C4.96902 179.91 7.59976 181 10.3429 181H51.7143V129.286H0V170.657ZM12.9286 142.214H38.7857V168.071H12.9286V142.214Z" fill="black"/>
<path d="M129.286 181H170.657C173.4 181 176.031 179.91 177.971 177.971C179.91 176.031 181 173.4 181 170.657V129.286H129.286V181ZM142.214 142.214H168.071V168.071H142.214V142.214Z" fill="black"/>
<path d="M170.657 0H129.286V51.7143H181V10.3429C181 7.59976 179.91 4.96902 177.971 3.02935C176.031 1.08969 173.4 0 170.657 0ZM168.071 38.7857H142.214V12.9286H168.071V38.7857Z" fill="black"/>
<path d="M103.429 38.7857V25.8571H77.5714V51.7143H90.5V38.7857H103.429Z" fill="black"/>
<path d="M51.7143 51.7143H64.6429V64.6429H51.7143V51.7143Z" fill="black"/>
<path d="M64.6429 64.6429H90.5V77.5714H64.6429V64.6429Z" fill="black"/>
<path d="M103.429 12.9286V25.8571H116.357V0H64.6429V25.8571H77.5714V12.9286H103.429Z" fill="black"/>
<path d="M0 64.6429H12.9286V90.5H0V64.6429Z" fill="black"/>
<path d="M51.7143 77.5714V90.5H38.7857V64.6429H25.8571V90.5H12.9286V103.429H0V116.357H25.8571V103.429H38.7857V116.357H51.7143V103.429H64.6429V77.5714H51.7143Z" fill="black"/>
<path d="M103.429 77.5714H116.357V90.5H129.286V77.5714H142.214V64.6429H116.357V38.7857H103.429V51.7143H90.5V64.6429H103.429V77.5714Z" fill="black"/>
<path d="M90.5 168.071H64.6429V181H116.357V168.071H103.429V155.143H90.5V168.071Z" fill="black"/>
<path d="M116.357 103.429V90.5H103.429V77.5714H90.5V90.5H77.5714V103.429H90.5V116.357H103.429V103.429H116.357Z" fill="black"/>
<path d="M168.071 103.429H181V116.357H168.071V103.429Z" fill="black"/>
<path d="M116.357 103.429H155.143V116.357H116.357V103.429Z" fill="black"/>
<path d="M168.071 64.6429H155.143V77.5714H142.214V90.5H155.143V103.429H168.071V90.5H181V77.5714H168.071V64.6429Z" fill="black"/>
<path d="M103.429 116.357H116.357V155.143H103.429V116.357Z" fill="black"/>
<path d="M64.6429 155.143H77.5714V142.214H90.5V129.286H77.5714V103.429H64.6429V155.143Z" fill="black"/>
</svg>
